<svg version="1.1" id="Layer_1" xmlns="http://www.w3.org/2000/svg" xmlns:xlink="http://www.w3.org/1999/xlink" x="0px" y="0px"
	 width="100%" viewBox="0 0 496 496" enable-background="new 0 0 496 496" xml:space="preserve">
<path fill="#000000" opacity="1.000000" stroke="none" 
	d="
M302.244476,373.360535 
	C259.525482,389.936554 218.634018,387.171814 180.027328,362.886475 
	C146.621750,341.872864 126.372818,311.194916 120.201942,272.387238 
	C113.582161,230.756439 124.559685,193.385529 152.809189,161.787506 
	C173.400650,138.755295 199.406677,124.563019 229.884003,119.981827 
	C287.413544,111.334320 341.068451,138.069702 367.250397,187.538208 
	C391.520081,233.393738 389.456451,279.206299 362.130341,323.262390 
	C347.897797,346.208649 327.558167,362.661682 302.244476,373.360535 
M271.470123,245.342316 
	C270.799225,245.777710 270.226135,246.498077 268.969360,245.983109 
	C269.289032,240.882385 271.417114,236.170135 272.880829,231.311844 
	C273.938904,227.799835 274.325989,224.443237 272.003967,221.314957 
	C270.637848,219.474518 269.453735,217.104630 266.671814,217.373306 
	C263.858185,217.645050 263.122772,220.140915 262.345764,222.322479 
	C259.552612,230.164612 257.086365,238.109253 255.298416,246.247925 
	C253.703110,253.509628 251.840164,255.269730 244.442993,256.297180 
	C242.300552,256.594757 240.156906,256.901367 238.004501,257.106140 
	C231.956207,257.681519 231.223190,256.682251 233.148926,250.822830 
	C243.287735,219.973343 251.032684,188.480759 258.335327,156.870712 
	C259.304810,152.674240 258.293732,148.925171 255.379059,145.764679 
	C254.261948,144.553329 253.011581,143.198486 251.138168,143.574280 
	C248.986404,144.005875 248.659592,145.860123 248.138382,147.697540 
	C246.985107,151.763290 247.068481,156.199875 244.853729,159.961594 
	C243.253555,159.556290 242.954025,158.303391 242.318954,157.375214 
	C237.782608,150.745071 232.676376,148.965393 225.062622,151.434616 
	C221.212067,152.683395 217.742188,154.697617 214.636093,157.239502 
	C197.639282,171.148865 189.066650,189.845215 185.583054,210.901398 
	C183.750885,221.975662 193.956787,231.774979 204.837646,230.573654 
	C210.079483,229.994919 214.495392,227.283829 218.601791,223.978149 
	C223.485199,220.046951 227.100174,214.864441 231.550034,210.510757 
	C232.805374,211.751419 232.426102,212.788864 232.166046,213.686096 
	C228.321579,226.949722 224.393875,240.189346 220.587082,253.463669 
	C219.815063,256.155731 218.206436,257.331451 215.529633,257.274628 
	C211.290909,257.184662 207.147949,258.245941 203.332977,259.662903 
	C194.399811,262.980865 186.455383,267.744141 183.997147,278.014130 
	C183.997147,278.014130 184.018646,277.988800 183.518051,278.539398 
	C180.741013,285.372864 182.916916,291.176575 187.294464,296.494019 
	C191.637421,301.769470 197.408020,302.640137 203.598724,301.242004 
	C209.365784,299.939575 213.805420,296.608429 216.737488,291.328735 
	C221.683975,282.421692 225.424561,273.005249 228.876938,263.449982 
	C229.520264,261.669373 229.702789,258.992523 232.156738,258.893219 
	C238.886658,258.620880 245.485641,257.263000 252.087936,256.158173 
	C252.693405,258.819611 252.102142,260.735291 251.757523,262.688171 
	C246.638046,291.699554 243.267899,320.883179 243.257187,350.389130 
	C243.256348,352.699127 243.077774,355.038422 244.199936,357.237030 
	C245.786804,360.346130 248.052414,362.393982 251.719208,361.668701 
	C255.245682,360.971222 255.698242,358.132812 255.667282,355.106049 
	C255.529312,341.622589 256.204559,328.175201 257.631958,314.769745 
	C260.157776,291.048798 260.833862,266.941742 272.564117,244.648590 
	C277.608856,238.695557 282.101379,232.259628 288.058624,227.105408 
	C290.354187,225.119263 292.993164,223.795273 295.801361,225.186356 
	C298.358734,226.453186 298.344849,229.396896 298.074127,231.850830 
	C296.362213,247.367386 290.207642,260.940002 279.769958,272.537689 
	C278.217438,274.262787 276.245880,276.188812 273.751251,274.789215 
	C271.497955,273.524994 272.281036,270.992523 272.491760,268.860107 
	C272.994232,263.775146 275.670044,259.352539 276.950714,254.506012 
	C273.038452,260.093140 270.618134,266.143402 271.339020,273.086945 
	C271.904358,278.532471 276.122894,281.982788 281.222260,281.308136 
	C289.532715,280.208618 309.192383,267.176361 313.814728,259.427063 
	C307.861053,264.454651 302.314819,269.223022 295.664948,273.276550 
	C295.255188,270.381958 296.663300,269.223419 297.457947,267.848907 
	C301.816620,260.309479 305.119446,252.352020 307.068054,243.858582 
	C308.258820,238.668259 309.265076,233.491943 307.602051,228.146881 
	C305.400024,221.069351 298.384094,217.986984 292.233124,222.105652 
	C283.546173,227.922394 276.769623,235.625214 271.470123,245.342316 
z"/>
<path fill="#000000" opacity="1.000000" stroke="none" 
	d="
M395.621155,284.708374 
	C405.709961,235.548859 395.271423,191.899216 362.960846,153.804993 
	C348.731293,137.028290 331.302551,124.438065 311.291321,115.361038 
	C308.823364,114.241570 305.620911,113.398720 307.686096,108.374954 
	C353.508209,127.732475 383.902893,160.753265 398.288055,208.151001 
	C414.918427,262.946411 395.886505,319.579498 369.378998,347.430084 
	C368.212158,344.270386 368.418427,341.644318 370.397949,339.020538 
	C382.602692,322.843567 390.720184,304.744873 395.621155,284.708374 
z"/>
<path fill="#000000" opacity="1.000000" stroke="none" 
	d="
M112.526901,197.468628 
	C105.658501,214.405289 102.621063,231.831985 102.514076,249.523956 
	C102.320564,281.524567 111.438484,310.895416 130.086319,337.103729 
	C133.702850,342.186493 133.779861,342.131714 132.563812,348.543823 
	C116.685982,329.157104 106.427338,307.911346 101.139290,284.232117 
	C95.861420,260.598389 96.237526,236.953033 102.168556,213.508423 
	C110.128563,182.043549 126.666458,155.749207 151.130035,134.481628 
	C163.999863,123.293159 178.411789,114.626549 194.346115,108.363953 
	C196.393326,112.411324 194.311295,113.777802 191.632675,114.967857 
	C176.440094,121.717567 162.682327,130.599289 150.451218,141.944977 
	C133.670517,157.510864 121.111519,175.877930 112.526901,197.468628 
z"/>
<path fill="#000000" opacity="1.000000" stroke="none" 
	d="
M244.912399,392.436188 
	C246.109589,393.578308 246.990982,394.534729 248.032898,395.665314 
	C251.040466,391.843628 254.868958,390.373962 259.365479,392.698730 
	C262.704041,394.424866 263.976807,397.536072 263.097473,401.161072 
	C262.284515,404.512482 259.955536,406.733826 256.486389,407.145660 
	C251.541473,407.732666 248.776550,404.899475 247.120224,400.058411 
	C244.673233,403.001312 240.000946,401.101868 238.071259,405.440399 
	C237.311264,407.149048 235.367981,405.848572 235.384155,403.902130 
	C235.410431,400.742981 235.182816,397.457123 235.957855,394.456024 
	C237.350555,389.063263 241.521698,392.337646 244.912399,392.436188 
M254.037567,403.439545 
	C256.662537,404.021606 258.699371,403.274445 259.473450,400.572968 
	C260.086517,398.433502 259.335144,396.585297 257.203064,395.681091 
	C255.398178,394.915680 253.507385,395.068604 252.283005,396.753357 
	C250.549850,399.138214 250.858368,401.369629 254.037567,403.439545 
z"/>
<path fill="#000000" opacity="1.000000" stroke="none" 
	d="
M219.848709,399.718079 
	C220.202713,401.270966 220.981384,402.548187 219.645584,403.733002 
	C216.127808,403.944672 216.857758,400.075012 214.872650,398.710175 
	C212.701660,398.463409 213.069504,401.324524 211.242950,401.673645 
	C209.933777,401.592468 209.237091,400.774536 209.464264,399.388062 
	C209.812531,397.262573 210.062576,395.069946 210.807449,393.074982 
	C211.544327,391.101349 210.657623,387.747192 213.876434,387.575256 
	C216.985367,387.409271 220.331284,387.797668 222.155426,391.039093 
	C223.778641,393.923462 222.335617,396.079529 220.259415,398.048676 
	C219.947906,398.344177 219.928177,398.947296 219.848709,399.718079 
z"/>
<path fill="#000000" opacity="1.000000" stroke="none" 
	d="
M190.031357,384.975952 
	C193.518082,387.796722 192.379349,389.982208 188.990952,391.649261 
	C184.864883,393.679291 180.226364,391.679047 178.385895,387.216003 
	C176.801559,383.374084 178.647446,379.138885 182.664963,377.398163 
	C186.549591,375.714996 191.532074,377.746002 192.976257,381.741455 
	C193.726440,383.816895 194.115097,385.965698 190.208328,384.727264 
	C189.454956,381.863251 188.147125,380.271332 185.533157,380.475098 
	C183.276031,380.651001 181.973267,382.277985 181.528519,384.346252 
	C181.067596,386.489777 182.453842,387.765076 184.274185,388.521027 
	C185.001709,388.823181 185.875671,388.990112 186.547531,388.161011 
	C186.452789,386.934296 184.215591,386.461823 185.381805,384.704834 
	C186.931824,383.527679 188.457001,384.914093 190.031357,384.975952 
z"/>
<path fill="#000000" opacity="1.000000" stroke="none" 
	d="
M301.213745,382.776306 
	C305.287689,380.998413 308.772705,381.100098 311.491852,384.434265 
	C313.714691,387.159851 313.916779,390.223389 312.044281,393.256042 
	C310.096161,396.411102 307.227905,397.785645 303.545807,397.092987 
	C300.499359,396.519958 298.483215,394.674835 297.639771,391.670868 
	C296.612762,388.013092 297.883423,385.166992 301.213745,382.776306 
M308.101624,386.288208 
	C305.823700,384.706360 303.646515,384.857758 301.992584,387.082184 
	C300.656555,388.879089 300.828125,390.895233 302.484680,392.491638 
	C303.985107,393.937561 305.782104,394.053436 307.475037,392.808746 
	C309.667023,391.197083 310.316742,389.199219 308.101624,386.288208 
z"/>
<path fill="#000000" opacity="1.000000" stroke="none" 
	d="
M269.274048,394.716003 
	C268.154053,390.801941 270.775269,390.406067 273.047791,389.996887 
	C275.910248,389.481506 278.809296,389.397369 280.406494,392.574951 
	C281.558044,394.865875 281.757996,397.551788 279.453430,398.848297 
	C276.615448,400.444916 273.993469,401.986267 272.701813,405.630737 
	C269.243378,402.389740 270.146118,398.493652 269.274048,394.716003 
z"/>
<path fill="#000000" opacity="1.000000" stroke="none" 
	d="
M231.685165,393.947144 
	C230.520340,393.829987 229.700790,393.723572 228.886581,393.755127 
	C228.665894,393.763702 228.461411,394.189362 228.191055,394.488190 
	C228.821243,396.818237 232.546021,395.315826 232.802368,398.189026 
	C231.822250,400.378510 228.845657,398.317047 227.756302,400.476776 
	C228.568298,403.001617 232.343796,401.434265 233.193832,404.934692 
	C229.786545,406.031372 226.605804,405.645142 223.607132,403.875458 
	C222.525803,403.237335 223.631165,392.144409 225.067657,390.955444 
	C228.382080,388.212006 231.521591,390.861450 234.690033,391.406097 
	C235.120483,393.979340 233.696671,394.133331 231.685165,393.947144 
z"/>
<path fill="#000000" opacity="1.000000" stroke="none" 
	d="
M319.072296,389.371094 
	C316.580200,386.411591 317.153320,380.825043 311.221893,381.707855 
	C310.346252,381.838165 309.649506,380.051697 310.655945,379.415802 
	C313.689392,377.499237 316.644562,375.072052 322.033569,375.341736 
	C317.075897,379.911285 320.139771,383.173981 321.637756,386.644043 
	C322.975677,389.743347 322.729858,389.977722 319.072296,389.371094 
z"/>
<path fill="#000000" opacity="1.000000" stroke="none" 
	d="
M200.101593,383.850555 
	C204.442352,383.216125 207.896240,384.958160 211.327621,387.856537 
	C203.784348,388.172180 206.336044,396.501129 201.970276,399.282684 
	C198.962830,396.938477 200.984070,394.723053 201.675964,392.834015 
	C202.817383,389.717834 202.761139,387.130005 199.972229,384.539062 
	C199.975662,384.081787 200.101593,383.850555 200.101593,383.850555 
z"/>
<path fill="#000000" opacity="1.000000" stroke="none" 
	d="
M290.303772,389.050201 
	C290.733643,390.512756 291.159180,391.599213 291.368347,392.725830 
	C291.988373,396.065247 293.288940,398.298218 297.285156,396.979858 
	C297.722656,396.835510 298.389465,397.386169 299.223236,397.725830 
	C297.577209,401.297089 294.339386,401.121704 291.647705,401.329681 
	C289.187592,401.519714 289.453888,398.842041 288.881500,397.279480 
	C288.033112,394.963440 287.421692,392.556549 286.789948,390.167084 
	C286.534241,389.199921 286.485352,388.103516 287.508331,387.509583 
	C288.845856,386.733002 289.657837,387.485229 290.303772,389.050201 
z"/>
<path fill="#000000" opacity="1.000000" stroke="none" 
	d="
M199.919556,384.200867 
	C198.546509,387.313446 197.280472,390.330872 195.888153,393.288879 
	C195.311859,394.513306 194.983902,396.527283 192.904312,395.608368 
	C191.338120,394.916229 191.820602,393.414764 192.300949,392.161896 
	C193.358231,389.404205 194.378860,386.627411 195.574722,383.929443 
	C196.538818,381.754333 197.977600,381.328644 199.886032,383.583923 
	C200.101593,383.850555 199.975662,384.081787 199.919556,384.200867 
z"/>
<path fill="#000000" opacity="1.000000" stroke="none" 
	d="
M285.124573,402.738342 
	C282.027527,399.057220 282.402191,394.534180 281.141632,390.498108 
	C280.860229,389.597168 281.390778,388.828430 282.344788,388.737030 
	C282.914764,388.682404 283.658752,388.880432 284.092987,389.242554 
	C286.015442,390.845795 286.978058,400.611511 285.124573,402.738342 
z"/>
<path fill="#000000" opacity="1.000000" stroke="none" 
	d="
M242.848175,163.631104 
	C244.112778,168.828964 242.484314,173.308624 241.266266,177.767914 
	C238.521652,187.815994 237.699905,198.509933 231.416489,207.397552 
	C226.483994,214.374359 221.158890,220.968399 213.838608,225.611374 
	C206.130783,230.500153 199.419144,227.604950 197.239136,218.712997 
	C196.361893,215.134827 196.896606,211.666016 197.786514,208.345413 
	C202.514938,190.701630 210.284943,174.680023 223.519333,161.699829 
	C225.448090,159.808121 227.683487,158.387405 230.101028,157.224503 
	C237.482651,153.673737 240.691193,155.196243 242.848175,163.631104 
z"/>
<path fill="#000000" opacity="1.000000" stroke="none" 
	d="
M183.989716,278.029602 
	C189.599884,267.183838 198.641251,261.098206 210.553391,259.067749 
	C212.972534,258.655396 215.448822,258.124115 218.397400,259.867462 
	C214.644638,270.784119 211.631775,282.049194 204.668732,291.598450 
	C201.356308,296.141205 194.590073,297.937073 189.796371,295.876099 
	C184.785980,293.722015 183.882935,289.035889 183.597473,284.250397 
	C183.489594,282.441528 183.850876,280.604675 184.008484,278.384705 
	C184.018646,277.988800 183.997147,278.014130 183.989716,278.029602 
z"/>
</svg>